<mxfile host="app.diagrams.net" agent="Mozilla/5.0 (Windows NT 10.0; Win64; x64) AppleWebKit/537.36 (KHTML, like Gecko) Chrome/136.0.0.0 Safari/537.36 Edg/136.0.0.0" version="26.2.12">
  <diagram name="Page-1" id="B4hLzdrzx6wuS34lx0YS">
    <mxGraphModel dx="1065" dy="542" grid="0" gridSize="10" guides="1" tooltips="1" connect="1" arrows="1" fold="1" page="1" pageScale="1" pageWidth="850" pageHeight="1100" math="0" shadow="0">
      <root>
        <mxCell id="0" />
        <mxCell id="1" parent="0" />
        <mxCell id="aypDigCAvRjZUrw1AZJe-13" style="edgeStyle=orthogonalEdgeStyle;rounded=0;orthogonalLoop=1;jettySize=auto;html=1;exitX=0.5;exitY=1;exitDx=0;exitDy=0;entryX=0.5;entryY=0;entryDx=0;entryDy=0;" edge="1" parent="1" source="aypDigCAvRjZUrw1AZJe-1" target="aypDigCAvRjZUrw1AZJe-3">
          <mxGeometry relative="1" as="geometry" />
        </mxCell>
        <mxCell id="aypDigCAvRjZUrw1AZJe-1" value="Input Dataset&lt;br&gt;(Images + CSV)" style="rounded=0;whiteSpace=wrap;html=1;" vertex="1" parent="1">
          <mxGeometry x="120" y="40" width="160" height="50" as="geometry" />
        </mxCell>
        <mxCell id="aypDigCAvRjZUrw1AZJe-14" style="edgeStyle=orthogonalEdgeStyle;rounded=0;orthogonalLoop=1;jettySize=auto;html=1;exitX=0.5;exitY=1;exitDx=0;exitDy=0;entryX=0.5;entryY=0;entryDx=0;entryDy=0;" edge="1" parent="1" source="aypDigCAvRjZUrw1AZJe-2" target="aypDigCAvRjZUrw1AZJe-4">
          <mxGeometry relative="1" as="geometry" />
        </mxCell>
        <mxCell id="aypDigCAvRjZUrw1AZJe-2" value="Test Dataset Loader&lt;br&gt;(Load test CSV &amp;amp; paths)" style="rounded=0;whiteSpace=wrap;html=1;" vertex="1" parent="1">
          <mxGeometry x="480" y="40" width="160" height="80" as="geometry" />
        </mxCell>
        <mxCell id="aypDigCAvRjZUrw1AZJe-3" value="Label Encoding &amp;amp; Paths&lt;br&gt;(LabelEncoder, Paths)" style="rounded=0;whiteSpace=wrap;html=1;" vertex="1" parent="1">
          <mxGeometry x="120" y="160" width="160" height="80" as="geometry" />
        </mxCell>
        <mxCell id="aypDigCAvRjZUrw1AZJe-4" value="Test Image &lt;br&gt;Preprocessing" style="rounded=0;whiteSpace=wrap;html=1;" vertex="1" parent="1">
          <mxGeometry x="480" y="160" width="160" height="80" as="geometry" />
        </mxCell>
        <mxCell id="aypDigCAvRjZUrw1AZJe-5" value="Test Data &lt;br&gt;(X_test)" style="rounded=0;whiteSpace=wrap;html=1;" vertex="1" parent="1">
          <mxGeometry x="480" y="360" width="160" height="80" as="geometry" />
        </mxCell>
        <mxCell id="aypDigCAvRjZUrw1AZJe-6" value="CNN Model Architecture" style="rounded=0;whiteSpace=wrap;html=1;" vertex="1" parent="1">
          <mxGeometry x="320" y="480" width="120" height="80" as="geometry" />
        </mxCell>
        <mxCell id="aypDigCAvRjZUrw1AZJe-7" value="Model Compilation&lt;br&gt;(Adam + CrossEnt)" style="rounded=0;whiteSpace=wrap;html=1;" vertex="1" parent="1">
          <mxGeometry x="320" y="640" width="120" height="80" as="geometry" />
        </mxCell>
        <mxCell id="aypDigCAvRjZUrw1AZJe-8" value="Training" style="rounded=0;whiteSpace=wrap;html=1;" vertex="1" parent="1">
          <mxGeometry x="320" y="800" width="120" height="40" as="geometry" />
        </mxCell>
        <mxCell id="aypDigCAvRjZUrw1AZJe-9" value="Evaluation &amp;amp; F1&lt;br&gt;(f1_score, reports)" style="rounded=0;whiteSpace=wrap;html=1;" vertex="1" parent="1">
          <mxGeometry x="320" y="920" width="120" height="60" as="geometry" />
        </mxCell>
        <mxCell id="aypDigCAvRjZUrw1AZJe-10" value="&lt;div style=&quot;&quot;&gt;&lt;span style=&quot;background-color: transparent; color: light-dark(rgb(0, 0, 0), rgb(255, 255, 255));&quot;&gt;Save Model&lt;br&gt;&lt;/span&gt;&lt;span class=&quot;selectable-text copyable-text xkrh14z&quot; style=&quot;white-space-collapse: preserve;&quot;&gt;model.save(&quot;soil_classifier_f1_1.h5&quot;)&lt;/span&gt;&lt;span style=&quot;background-color: transparent; color: light-dark(rgb(0, 0, 0), rgb(255, 255, 255));&quot;&gt;&lt;/span&gt;&lt;/div&gt;" style="rounded=0;whiteSpace=wrap;html=1;align=center;" vertex="1" parent="1">
          <mxGeometry x="255" y="1016" width="250" height="60" as="geometry" />
        </mxCell>
        <mxCell id="aypDigCAvRjZUrw1AZJe-11" value="Image Preprocessing&lt;br&gt;(Resize, Normalize Images)" style="rounded=0;whiteSpace=wrap;html=1;" vertex="1" parent="1">
          <mxGeometry x="120" y="360" width="160" height="80" as="geometry" />
        </mxCell>
        <mxCell id="aypDigCAvRjZUrw1AZJe-12" value="Create Submission CSV" style="rounded=0;whiteSpace=wrap;html=1;" vertex="1" parent="1">
          <mxGeometry x="540" y="820" width="120" height="60" as="geometry" />
        </mxCell>
      </root>
    </mxGraphModel>
  </diagram>
</mxfile>
